<?xml version="1.0" standalone="no"?>
<!DOCTYPE svg PUBLIC "-//W3C//DTD SVG 20010904//EN"
 "http://www.w3.org/TR/2001/REC-SVG-20010904/DTD/svg10.dtd">
<svg version="1.0" xmlns="http://www.w3.org/2000/svg"
 width="574.000000pt" height="575.000000pt" viewBox="0 0 574.000000 575.000000"
 preserveAspectRatio="xMidYMid meet">
  <g transform="translate(0.000000,575.000000) scale(0.100000,-0.100000)"
fill="#a3492f" stroke="none">
    <path d="M0 2875 l0 -2875 2870 0 2870 0 0 2875 0 2875 -2870 0 -2870 0 0
-2875z m4283 938 c783 -395 1382 -705 1388 -715 8 -14 4 -23 -13 -41 -13 -12
-229 -126 -480 -252 l-458 -230 0 -348 c0 -282 -3 -353 -14 -376 -126 -242
-1528 -373 -2746 -256 -407 40 -726 117 -858 207 -84 58 -82 48 -82 435 l0
343 -220 110 c-121 60 -222 110 -225 110 -3 0 -5 -139 -5 -310 0 -185 4 -310
9 -310 5 0 19 -14 31 -30 43 -60 21 -155 -44 -189 l-25 -14 21 -40 c42 -83 59
-206 65 -459 3 -131 3 -238 -1 -238 -4 0 -30 7 -57 16 -50 16 -56 16 -148 -12
l-24 -7 6 229 c5 247 20 353 60 454 l25 61 -29 14 c-72 38 -80 166 -12 210
l23 15 0 333 0 332 -190 98 c-104 54 -194 107 -200 117 -8 15 -6 24 7 37 10
10 623 324 1363 697 740 374 1361 688 1380 698 19 10 44 16 55 13 11 -2 640
-318 1398 -702z"/>
    <path d="M2610 3204 c-25 -2 -103 -9 -175 -14 -292 -24 -640 -81 -915 -150
-331 -84 -413 -120 -451 -203 -22 -50 -26 -122 -5 -114 114 44 585 162 801
201 898 161 1788 110 2658 -153 92 -28 169 -51 171 -51 1 0 -1 27 -5 59 -15
130 -72 163 -454 259 -279 71 -544 118 -835 147 -145 15 -685 28 -790 19z"/>
    <path d="M2520 2093 c-751 -21 -1290 -98 -1290 -183 0 -166 1665 -254 2730
-144 154 16 362 48 420 65 59 17 129 51 134 65 17 45 -133 97 -384 133 -365
52 -1061 80 -1610 64z"/>
  </g>
</svg>